<svg id="machfourlogo" version="1.0" xmlns="http://www.w3.org/2000/svg" width="1206px" height="713px" 
viewBox="0 0 12060 7130" preserveAspectRatio="xMidYMid meet">
<g id="outline" fill="none" stroke="none">
 <path d="M9694 5511 c-62 -10 -121 -29 -154 -50 -14 -8 -111 -102 -217 -208 -105 -106 -195 -193 -199 -193 -9 0 4 108 17 131 5 11 28 31 50 45 104 65 83 187 -39 229 -78 27 -304 40 -446 27 -176 -17 -261 -53 -292 -127 -8 -20 -25 -37 -44 -45 -33 -14 -80 -64 -80 -86 0 -7 -17 -22 -37 -33 -45 -22 -68 -46 -82 -84 -6 -15 -14 -27 -19 -27 -5 0 -25 33 -45 73 -48 95 -105 160 -193 217 -129 84 -280 120 -511 120 -224 0 -390 -40 -518 -126 -27 -18 -152 -136 -277 -262 l-226 -229 -12 46 c-14 57 -72 172 -116 233 -113 153 -313 277 -517 319 -228 47 -460 12 -652 -99 -71 -42 -521 -482 -591 -578 -84 -117 -134 -258 -149 -417 -7 -77 -8 -77 -55 -117 -59 -49 -113 -70 -205 -77 l-70 -5 45 23 c33 18 52 37 70 71 14 27 32 48 41 48 85 0 141 206 119 434 -14 152 -45 231 -103 266 -73 45 -157 7 -157 -71 0 -20 -4 -23 -52 -33 -36 -8 -55 -30 -68 -76 -9 -35 -15 -40 -39 -40 -17 0 -31 7 -35 16 -3 9 -6 73 -6 143 l0 128 38 24 c26 17 40 35 46 60 7 31 15 39 46 48 56 17 75 44 75 106 0 65 -25 97 -94 119 -153 50 -582 59 -736 15 -45 -13 -105 -68 -105 -97 0 -14 -10 -24 -32 -31 -43 -15 -75 -47 -88 -87 -8 -22 -19 -34 -38 -39 -36 -9 -80 -51 -87 -85 -4 -18 -16 -30 -39 -38 -53 -19 -79 -54 -84 -115 -4 -45 -1 -57 19 -80 13 -15 44 -37 69 -50 24 -12 52 -36 62 -53 30 -51 39 -206 36 -569 -3 -337 -3 -341 -25 -365 -13 -13 -23 -34 -23 -46 0 -15 -10 -26 -31 -35 -60 -24 -89 -57 -89 -100 0 -58 23 -94 77 -120 54 -27 62 -27 493 -10 142 5 304 4 480 -5 304 -14 309 -13 368 66 19 24 47 53 63 62 16 10 44 38 61 63 18 25 47 54 65 65 17 10 44 37 59 59 15 23 30 41 35 41 4 0 21 -19 37 -42 44 -64 128 -144 204 -194 130 -87 274 -132 450 -141 184 -9 346 27 485 108 69 40 544 505 601 588 l37 54 3 -54 c2 -30 2 -120 0 -202 l-3 -147 -61 -59 c-89 -84 -97 -152 -27 -210 66 -54 138 -66 403 -66 200 0 244 3 295 18 76 24 111 49 126 92 8 22 23 38 42 46 38 16 87 66 87 88 0 12 18 27 47 43 35 17 53 35 67 65 14 29 32 47 61 61 52 25 80 77 72 134 -6 48 -21 66 -73 89 -85 38 -93 69 -94 367 0 251 -6 236 83 206 57 -19 128 -93 145 -152 8 -27 12 -143 12 -369 l0 -329 -25 -22 c-14 -12 -28 -35 -31 -50 -4 -21 -17 -33 -53 -50 -70 -32 -91 -94 -52 -158 40 -66 133 -87 364 -82 164 3 175 4 228 30 35 18 60 38 68 55 8 16 16 34 20 41 3 8 20 20 37 27 l32 13 6 -37 c16 -101 146 -140 398 -120 100 8 201 8 356 0 226 -11 317 -5 422 25 115 33 145 57 390 303 285 286 285 285 285 451 0 112 -1 117 -34 178 -31 58 -110 142 -133 142 -5 0 6 18 24 41 33 41 39 47 104 102 45 38 100 154 119 251 9 43 25 90 35 104 11 13 20 36 20 49 0 19 10 28 48 44 59 25 72 42 72 93 0 80 -64 142 -174 170 -72 19 -214 27 -282 17z m248 -52 c103 -22 168 -72 168 -130 0 -31 -23 -59 -48 -59 -32 0 -78 -37 -94 -76 -10 -21 -24 -77 -32 -124 -29 -178 -72 -245 -196 -309 -76 -40 -99 -61 -94 -88 1 -7 2 -18 3 -23 0 -6 25 -26 55 -45 111 -71 150 -145 151 -285 0 -84 -3 -102 -28 -152 -47 -97 -146 -165 -292 -204 -60 -15 -98 -17 -260 -14 -231 5 -377 5 -555 0 -148 -4 -202 6 -245 46 -18 16 -25 34 -25 59 0 30 5 39 31 53 55 30 86 61 105 104 17 39 19 80 22 441 3 421 -1 479 -41 538 -12 18 -42 47 -67 64 -98 68 -44 155 115 184 79 15 376 15 459 0 92 -16 130 -43 134 -96 3 -39 1 -43 -43 -73 -73 -50 -79 -67 -91 -238 -8 -125 2 -189 33 -220 22 -21 30 -24 71 -18 62 8 115 45 140 98 12 24 38 106 57 183 66 257 127 344 263 381 59 16 234 18 304 3z m-6060 -32 c72 -18 104 -38 112 -72 12 -46 -13 -77 -72 -93 -112 -31 -135 -86 -130 -310 3 -171 6 -178 75 -188 101 -14 174 36 192 132 21 108 37 126 91 104 66 -27 102 -146 101 -331 -1 -208 -36 -299 -115 -299 -34 0 -52 21 -70 83 -27 92 -82 126 -182 111 -24 -3 -56 -15 -70 -26 -24 -20 -25 -23 -23 -132 3 -189 35 -248 144 -261 72 -9 215 8 290 35 49 18 74 36 135 100 82 85 107 98 150 80 74 -31 81 -177 13 -310 -58 -112 -46 -109 -358 -95 -177 9 -330 10 -481 4 -389 -15 -436 -15 -470 3 -44 24 -56 42 -52 79 3 28 11 38 60 66 43 25 61 43 79 80 23 47 24 57 27 365 4 314 -7 548 -28 604 -16 41 -59 83 -103 101 -43 18 -57 38 -57 86 0 63 63 95 205 106 120 9 471 -5 537 -22z m1901 -1 c421 -124 651 -496 552 -888 -24 -94 -106 -254 -169 -331 -101 -121 -230 -205 -381 -249 -114 -33 -343 -33 -458 0 -234 67 -399 197 -493 387 -64 130 -78 195 -78 350 0 105 4 145 22 210 78 272 294 475 572 536 123 27 312 21 433 -15z m1902 5 c224 -59 355 -178 421 -381 15 -47 18 -110 23 -450 5 -312 9 -401 20 -423 8 -15 41 -44 73 -64 66 -41 80 -69 54 -109 -17 -25 -44 -39 -106 -55 -49 -13 -319 -11 -380 2 -68 15 -110 50 -110 95 0 31 4 36 58 63 121 61 122 64 122 474 0 371 -4 401 -63 479 -22 29 -55 55 -100 77 -59 30 -79 35 -152 37 -203 7 -318 -84 -361 -285 -19 -92 -19 -599 0 -654 19 -51 42 -76 94 -99 63 -29 77 -81 33 -132 -41 -47 -154 -67 -376 -67 -278 2 -395 38 -395 122 0 26 11 42 60 88 39 36 64 69 70 91 6 20 10 183 10 385 0 383 3 412 59 524 80 158 252 266 476 301 106 16 379 5 470 -19z m-4573 -161 c9 -16 37 -39 64 -52 63 -30 82 -59 94 -143 13 -92 13 -799 0 -846 -9 -33 -43 -79 -58 -79 -4 0 -7 168 -7 373 -1 505 -10 548 -125 612 -53 30 -55 32 -58 77 -3 40 1 49 24 67 35 28 46 27 66 -9z m5301 6 c3 -8 30 -33 60 -55 93 -68 92 -65 92 -541 0 -394 -1 -406 -22 -452 -11 -25 -29 -51 -40 -56 -17 -10 -18 5 -18 401 l0 412 -27 55 c-19 38 -43 67 -78 93 -61 46 -67 81 -21 128 33 32 46 36 54 15z m956 -53 c-6 -16 -24 -83 -40 -151 -31 -131 -45 -166 -77 -195 l-21 -19 15 64 c25 111 63 221 94 276 33 57 45 67 29 25z m-6389 -56 c0 -18 48 -60 92 -80 78 -35 87 -97 88 -583 0 -337 -1 -363 -19 -385 -10 -13 -22 -37 -28 -53 -25 -79 -30 -30 -32 326 -2 367 -5 431 -23 502 -15 59 -33 81 -98 115 -61 33 -66 40 -61 101 3 41 81 96 81 57z m5370 -69 c25 -18 55 -53 68 -78 22 -44 22 -49 22 -455 l0 -410 -28 -54 c-15 -30 -31 -56 -37 -58 -7 -2 -10 136 -10 400 0 359 -2 407 -18 453 -17 50 -60 100 -104 123 -13 6 -26 19 -31 29 -15 29 6 81 41 102 31 19 32 19 42 1 5 -10 30 -34 55 -53z m-662 -1 c63 -33 106 -93 122 -172 7 -34 10 -166 8 -367 -3 -276 -5 -317 -21 -345 -9 -18 -26 -37 -37 -43 -20 -11 -20 -7 -20 301 0 382 -4 404 -90 490 -70 71 -129 92 -253 93 l-89 1 32 26 c47 39 85 48 195 45 86 -2 107 -6 153 -29z m1562 8 c-5 -14 -19 -63 -30 -108 -42 -164 -39 -157 -64 -157 l-24 0 22 78 c13 42 33 97 46 122 41 80 70 117 50 65z m-2598 -57 c-13 -43 -17 -128 -20 -429 l-3 -376 -29 -34 c-15 -19 -30 -32 -33 -29 -3 3 -7 156 -8 340 -3 297 -1 342 15 395 22 73 77 185 91 185 1 0 -5 -24 -13 -52z m-3788 -20 c6 -13 33 -35 59 -49 27 -14 57 -35 68 -46 39 -38 47 -138 45 -544 -1 -337 -3 -379 -18 -395 -9 -11 -19 -31 -23 -46 -4 -15 -13 -32 -20 -38 -11 -9 -14 61 -18 402 -2 251 -8 428 -15 452 -15 56 -41 87 -103 121 -81 46 -93 115 -27 155 35 21 36 21 52 -12z m5329 -20 c20 -18 50 -44 67 -58 56 -46 59 -67 60 -477 l0 -372 -40 26 -40 27 0 287 c0 303 -4 334 -50 399 -12 17 -20 45 -20 72 -1 23 -5 62 -9 86 -5 23 -7 42 -6 42 2 0 19 -15 38 -32z m-3442 -44 c-49 -130 -54 -372 -11 -509 84 -266 289 -461 563 -535 101 -27 157 -34 272 -33 95 1 207 19 269 43 42 16 42 6 0 -19 -197 -117 -494 -135 -733 -45 -156 59 -320 201 -393 340 -66 126 -83 200 -83 359 0 166 14 227 81 363 49 100 65 117 35 36z m2770 30 c40 -12 66 -28 100 -63 71 -74 74 -93 74 -469 0 -304 -1 -324 -18 -334 -11 -5 -27 -29 -38 -52 l-19 -41 0 311 c0 282 -2 318 -20 376 -39 127 -136 198 -281 206 -44 3 -79 6 -79 8 0 25 25 55 52 63 52 15 170 12 229 -5z m-989 -61 c-13 -40 -17 -113 -20 -430 l-3 -383 -37 -37 -37 -38 -3 310 c-3 318 3 392 37 490 16 46 66 135 75 135 2 0 -3 -21 -12 -47z m904 -78 c30 -15 66 -42 80 -61 51 -66 53 -84 54 -447 0 -302 -2 -338 -16 -344 -9 -3 -25 -24 -35 -47 l-19 -41 0 290 c-1 160 -3 305 -6 324 -18 139 -93 230 -221 267 -50 15 -53 17 -53 48 0 18 3 36 8 40 16 17 153 -2 208 -29z m-3426 15 c0 -5 -9 -19 -20 -30 -11 -11 -24 -20 -30 -20 -14 0 -13 33 2 48 15 15 48 16 48 2z m610 -59 c-62 -198 -40 -443 57 -621 116 -214 307 -352 563 -407 129 -27 318 -23 430 10 47 14 86 24 88 22 9 -8 -110 -67 -181 -90 -365 -116 -778 24 -966 328 -20 33 -21 41 -10 74 6 20 12 66 12 102 1 81 -23 136 -70 163 -18 11 -33 27 -34 36 -6 114 22 244 77 361 24 52 46 92 49 90 2 -3 -5 -33 -15 -68z m1797 12 c-10 -32 -13 -34 -15 -15 -3 19 12 52 23 52 2 0 -2 -17 -8 -37z m1781 -358 c3 -230 1 -278 -10 -267 -10 10 -14 80 -15 300 -2 232 -1 283 10 267 9 -14 13 -99 15 -300z m-3693 244 c-20 -55 -45 -198 -45 -253 0 -38 -3 -43 -35 -58 -34 -15 -35 -15 -35 8 0 58 34 177 75 263 47 97 67 117 40 40z m1880 -696 c-6 -25 -52 -83 -66 -83 -6 0 -8 84 -6 218 l4 217 34 95 34 95 3 -260 c1 -143 0 -270 -3 -282z m-2393 490 c10 -9 26 -41 35 -72 9 -33 27 -66 44 -82 35 -32 35 -38 8 -73 -16 -20 -29 -26 -59 -26 -45 0 -55 11 -76 80 -17 59 -61 110 -93 110 -17 0 -21 6 -21 30 0 37 21 49 89 50 37 0 60 -5 73 -17z m-122 -123 c10 -10 26 -44 35 -74 11 -36 26 -64 46 -80 16 -14 29 -27 29 -30 0 -10 -71 -6 -92 5 -26 14 -45 61 -54 137 -7 67 1 77 36 42z m2676 -417 c42 -29 88 -43 189 -58 93 -14 380 -13 443 0 26 6 31 5 27 -7 -9 -23 -75 -55 -135 -66 -98 -18 -291 -24 -399 -13 -126 13 -167 24 -212 54 -27 18 -35 30 -37 60 -3 33 2 43 34 73 l38 34 12 -29 c6 -15 25 -37 40 -48z m-1937 16 c46 -67 153 -165 232 -212 209 -123 491 -160 719 -93 47 13 86 23 88 22 1 -2 -33 -22 -77 -45 -113 -59 -210 -82 -356 -86 -283 -8 -518 97 -681 304 l-42 53 34 45 c19 24 34 49 34 54 0 20 17 6 49 -42z m3911 -58 c35 -11 147 -15 485 -16 434 -3 473 -1 595 31 40 10 -45 -46 -103 -68 -109 -42 -170 -48 -387 -40 -222 7 -264 7 -505 1 -146 -4 -164 -2 -205 17 -50 23 -67 40 -70 69 -5 43 1 55 37 73 l36 19 36 -36 c20 -20 56 -43 81 -50z m-5369 35 c62 -57 88 -60 409 -46 269 12 608 8 769 -8 l64 -7 -35 -38 -36 -37 -158 7 c-182 9 -581 10 -859 3 -166 -4 -194 -3 -221 12 -34 19 -59 66 -50 96 5 14 53 48 75 51 2 1 21 -15 42 -33z m4508 16 c14 -26 87 -60 156 -71 33 -6 124 -9 203 -7 147 2 158 -1 111 -36 -43 -33 -142 -47 -294 -43 -205 6 -275 32 -275 103 0 30 6 41 28 54 35 22 59 22 71 0z m-1279 -75 c0 -23 55 -67 106 -86 85 -33 201 -44 387 -38 95 3 183 9 196 13 45 14 6 -32 -47 -54 -131 -56 -551 -54 -664 4 -68 35 -80 96 -27 145 34 31 49 36 49 16z m2030 -100 c84 -23 963 -18 1035 6 27 9 51 15 53 12 8 -8 -107 -66 -173 -87 -68 -22 -84 -22 -535 -23 -428 0 -469 2 -513 18 -84 33 -101 109 -31 145 l35 18 38 -37 c25 -25 54 -42 91 -52z m-5328 -2 c39 -15 68 -16 293 -9 269 10 613 8 789 -4 l109 -7 -36 -38 -36 -39 -188 9 c-206 9 -455 10 -805 3 -218 -5 -227 -4 -255 16 -34 26 -52 68 -37 92 6 9 26 25 45 34 34 16 34 16 56 -12 13 -15 42 -35 65 -45z m4454 54 c54 -59 164 -83 365 -77 148 4 158 0 101 -38 -80 -55 -414 -60 -513 -8 -38 19 -62 57 -54 84 6 18 58 60 76 60 3 0 14 -9 25 -21z m590 -54 c-11 -8 -25 -15 -30 -15 -6 0 -2 7 8 15 11 8 25 15 30 15 6 0 2 -7 -8 -15z m-1835 -66 c16 -17 54 -36 100 -51 69 -21 90 -23 322 -23 136 0 247 -3 247 -7 0 -18 -80 -51 -158 -65 -65 -11 -133 -14 -272 -10 -188 5 -264 18 -316 52 -50 33 -48 99 3 142 26 20 29 21 38 5 6 -9 22 -28 36 -43z m1953 -40 c71 -31 165 -39 318 -27 97 7 202 7 351 0 220 -11 330 -5 422 22 45 14 48 14 30 0 -44 -34 -134 -73 -207 -89 -65 -14 -123 -16 -385 -14 -169 2 -362 2 -428 1 -141 -3 -212 13 -245 55 -33 42 -24 83 25 110 l39 22 18 -30 c10 -17 38 -39 62 -50z m-5249 -27 c28 -6 77 -9 110 -6 203 15 603 20 814 10 l234 -11 -35 -37 c-35 -38 -36 -38 -114 -38 -44 0 -160 5 -259 10 -127 7 -279 7 -517 -2 -316 -11 -339 -11 -376 6 -74 33 -83 96 -19 132 l38 21 37 -37 c26 -27 51 -40 87 -48z m4417 69 c42 -60 149 -83 361 -79 81 2 147 0 147 -3 0 -18 -54 -51 -110 -65 -96 -24 -366 -16 -432 13 -77 35 -89 90 -29 130 41 28 46 28 63 4z"/>
 <path d="M9084 4585 c-26 -26 -26 -27 -19 -148 10 -195 15 -240 31 -264 18 -28 51 -37 112 -30 95 10 152 118 139 263 -3 34 -12 77 -20 96 -38 92 -185 141 -243 83z m161 -49 c15 -10 33 -33 41 -53 18 -41 20 -176 4 -218 -11 -29 -47 -75 -59 -75 -3 0 -6 33 -7 73 -1 91 -28 156 -78 189 -32 20 -36 28 -36 65 0 23 5 43 12 45 22 8 96 -8 123 -26z m-87 -166 c27 -54 33 -190 8 -190 -26 0 -46 30 -46 68 0 20 -3 68 -7 106 -7 82 8 87 45 16z"/>
 <path d="M5552 5159 c-112 -56 -218 -262 -272 -526 -35 -173 -22 -279 41 -357 81 -97 222 -87 322 24 85 94 159 279 192 479 30 175 10 285 -62 353 -56 53 -146 64 -221 27z m177 -46 c14 -10 37 -41 51 -68 20 -41 24 -62 23 -134 -3 -172 -81 -437 -157 -536 -11 -14 -10 -5 5 35 31 80 68 253 75 345 7 91 -9 166 -48 226 -26 38 -98 79 -140 79 -15 0 -28 4 -28 9 0 9 63 54 90 65 27 10 102 -2 129 -21z m-128 -119 c15 -7 38 -30 51 -51 21 -35 23 -49 23 -163 -1 -138 -20 -237 -75 -377 -30 -78 -68 -149 -75 -141 -2 2 5 30 16 63 56 166 79 385 50 468 -18 53 -68 107 -118 129 -24 10 -43 21 -43 24 0 20 34 63 52 67 32 7 87 -2 119 -19z m-121 -127 c19 -12 43 -37 54 -56 36 -63 32 -222 -10 -390 -24 -93 -56 -171 -70 -171 -17 0 -18 -7 7 113 29 142 28 257 -1 325 -13 29 -38 66 -58 82 l-35 29 17 45 c21 54 43 59 96 23z m-87 -149 c35 -47 47 -91 47 -169 0 -63 -33 -265 -45 -277 -8 -9 -46 31 -66 70 -28 56 -34 139 -15 243 20 113 34 165 46 165 5 0 20 -15 33 -32z"/>
 <path d="M7200 3404 c-14 -2 -56 -9 -95 -15 -198 -32 -397 -161 -523 -339 -43 -60 -202 -230 -216 -230 -10 0 41 95 58 109 9 8 16 23 16 35 0 30 10 41 49 54 50 18 71 40 71 78 0 28 5 36 35 49 55 27 68 100 27 162 -22 35 -109 71 -200 84 -123 17 -509 7 -581 -16 -62 -19 -111 -62 -111 -97 0 -14 -13 -33 -35 -51 -19 -15 -42 -43 -50 -62 -8 -20 -21 -35 -30 -35 -22 0 -85 -63 -85 -84 0 -13 -13 -16 -71 -16 -39 0 -79 5 -90 10 -18 10 -18 13 -4 33 8 12 15 34 15 50 0 17 6 30 18 34 41 14 62 45 62 91 0 99 -78 141 -280 149 -251 11 -389 -31 -390 -118 0 -48 -49 -45 -50 2 0 28 -66 77 -128 96 -47 15 -94 18 -267 18 -224 0 -270 -7 -337 -51 -26 -17 -40 -35 -47 -61 -7 -23 -24 -49 -45 -65 -19 -16 -37 -41 -41 -58 -4 -16 -12 -30 -18 -30 -7 0 -27 34 -46 75 -42 93 -78 135 -118 135 -38 0 -57 -15 -96 -76 -83 -131 -107 -163 -129 -166 -15 -2 -37 -23 -61 -60 -21 -32 -46 -58 -55 -58 -8 0 -26 -10 -39 -22 l-24 -22 7 59 c5 41 13 64 26 73 10 7 21 31 24 53 5 30 14 43 35 55 51 26 64 81 32 135 -37 62 -168 95 -342 86 -58 -3 -124 -11 -146 -17 -50 -15 -105 -69 -105 -103 0 -18 -9 -31 -29 -43 -28 -17 -51 -51 -51 -77 0 -7 -16 -19 -35 -25 -36 -14 -85 -64 -85 -88 0 -7 -18 -23 -39 -34 -103 -52 -111 -159 -14 -196 28 -11 49 -27 59 -45 23 -45 46 -348 47 -634 l2 -260 -29 -48 c-16 -27 -46 -59 -67 -72 -51 -33 -69 -62 -69 -111 0 -113 150 -171 420 -162 150 4 200 23 240 88 14 23 39 49 57 60 18 10 45 37 62 60 16 23 44 51 62 63 36 24 94 102 161 214 l43 72 108 -221 c160 -323 173 -333 442 -333 199 0 263 22 305 106 11 21 25 39 31 39 23 0 70 43 89 81 11 21 26 39 32 39 24 0 77 51 88 86 7 19 28 51 49 69 33 31 36 38 36 88 0 53 -2 57 -56 114 -64 66 -63 62 -79 302 -11 165 -3 364 14 358 36 -12 119 -172 298 -576 89 -200 116 -290 132 -439 16 -140 27 -171 77 -220 42 -41 107 -62 194 -62 115 0 158 27 357 227 186 188 294 331 395 526 l58 112 6 -115 c7 -130 24 -192 80 -300 79 -154 202 -270 374 -355 126 -63 224 -87 360 -89 125 -1 177 10 315 64 90 36 98 38 148 27 47 -10 57 -9 97 11 28 14 58 39 77 67 18 25 47 54 65 65 17 10 44 37 59 59 14 22 41 49 58 59 18 11 46 41 62 67 16 25 41 61 55 78 15 18 36 50 49 72 l22 40 -5 -113 c-3 -64 -10 -119 -16 -125 -6 -6 -11 -19 -11 -29 0 -11 -14 -26 -31 -36 -71 -39 -89 -61 -89 -110 0 -41 5 -50 45 -88 32 -31 62 -49 107 -62 97 -30 245 -45 382 -39 173 7 262 42 292 113 7 18 27 39 44 47 28 15 30 14 30 -4 0 -33 28 -76 63 -98 59 -36 144 -52 309 -58 258 -9 397 25 435 107 11 23 29 44 46 51 31 13 87 73 87 93 0 8 14 19 30 26 36 15 90 74 90 98 0 9 17 33 39 53 76 72 58 169 -40 220 -20 10 -40 26 -44 36 -13 33 -24 284 -25 562 l0 273 30 35 c17 18 30 45 30 58 0 15 9 29 23 36 36 19 57 51 57 92 0 116 -99 162 -370 173 -224 9 -354 -16 -415 -82 -14 -15 -25 -35 -25 -45 0 -10 -17 -35 -39 -56 -21 -22 -41 -48 -45 -60 -4 -12 -26 -31 -49 -43 l-42 -21 38 33 c94 82 51 203 -86 243 -162 46 -426 46 -570 -1 -56 -19 -113 -69 -123 -109 -4 -15 -22 -42 -41 -58 -18 -16 -36 -40 -39 -53 -3 -13 -10 -24 -14 -24 -4 0 -23 -11 -42 -24 l-35 -23 -26 52 c-43 87 -113 155 -162 155 -9 0 -66 20 -128 44 -62 25 -139 51 -172 59 -63 16 -202 28 -245 21z m255 -65 c22 -6 88 -31 147 -55 59 -24 119 -44 133 -44 64 0 168 -156 169 -255 1 -61 -23 -105 -57 -105 -13 0 -49 20 -81 44 -76 60 -151 86 -259 93 -140 9 -272 -40 -359 -133 -45 -48 -97 -145 -125 -229 -22 -67 -26 -99 -27 -200 -1 -106 2 -126 23 -173 62 -138 206 -185 375 -121 75 28 131 80 202 189 74 114 101 140 153 150 72 13 142 -26 177 -98 39 -83 9 -280 -56 -370 -44 -61 -80 -77 -148 -63 -52 10 -59 9 -151 -28 -137 -55 -191 -66 -311 -65 -343 4 -668 251 -751 570 -110 428 218 870 676 912 84 7 201 -1 270 -19z m-4229 10 c84 -11 118 -25 147 -57 28 -31 18 -63 -27 -86 -48 -25 -74 -60 -86 -112 -13 -53 -6 -362 8 -396 15 -37 48 -53 78 -39 27 12 50 56 163 311 106 241 151 324 178 328 28 4 56 -44 148 -256 99 -229 139 -305 175 -336 61 -51 97 -24 110 80 10 76 -4 294 -21 336 -6 15 -31 44 -55 63 -76 62 -56 118 53 152 82 25 411 26 494 0 77 -23 109 -50 109 -91 0 -27 -7 -38 -45 -65 -66 -48 -77 -75 -87 -231 -22 -326 -10 -739 24 -804 6 -11 33 -44 59 -73 54 -57 61 -85 29 -126 -38 -48 -98 -62 -265 -62 -224 0 -241 11 -349 220 -31 61 -83 167 -116 237 -126 265 -167 248 -369 -150 -67 -132 -133 -252 -147 -266 -38 -37 -115 -50 -269 -43 -149 6 -225 25 -267 67 -51 51 -36 88 62 153 70 47 75 67 75 337 0 129 -3 287 -7 350 -24 361 -30 384 -114 416 -49 18 -64 47 -45 83 32 59 184 84 357 60z m2032 1 c79 -11 146 -39 156 -65 18 -47 -10 -95 -55 -95 -9 0 -28 -9 -43 -21 -38 -30 -37 -96 2 -139 37 -42 114 -53 297 -45 227 10 276 30 277 113 0 52 -5 60 -61 85 -25 11 -49 25 -53 31 -15 23 -8 67 15 90 34 34 108 47 317 53 344 10 490 -28 490 -128 0 -36 -2 -38 -48 -53 -27 -9 -62 -31 -80 -49 -17 -18 -66 -107 -110 -202 -156 -332 -342 -707 -393 -792 -69 -114 -164 -214 -231 -243 -66 -28 -172 -26 -233 6 -54 28 -95 105 -95 178 0 148 -45 288 -213 656 -179 394 -190 411 -305 460 -37 16 -54 30 -58 46 -21 82 52 116 266 122 47 2 118 -2 158 -8z m3467 -11 c109 -20 165 -61 165 -119 0 -31 -6 -42 -41 -70 -67 -54 -83 -102 -83 -257 -1 -130 0 -133 25 -159 22 -22 40 -28 115 -36 49 -5 125 -8 168 -6 71 4 82 8 103 32 21 24 23 37 23 125 0 173 -26 254 -97 306 -25 18 -43 40 -45 55 -15 103 82 144 337 144 179 0 281 -14 340 -47 73 -41 73 -105 1 -149 -85 -51 -81 -26 -80 -508 1 -483 4 -508 64 -546 62 -39 80 -61 80 -97 0 -45 -34 -79 -102 -101 -70 -24 -314 -33 -429 -17 -202 29 -266 113 -149 197 65 46 75 77 75 234 l0 125 -35 17 c-48 24 -305 26 -350 3 -41 -21 -54 -75 -45 -195 8 -103 21 -139 61 -167 66 -44 85 -71 82 -110 -2 -30 -10 -42 -37 -60 -59 -40 -106 -48 -286 -47 -188 0 -271 14 -355 60 -89 49 -94 103 -12 147 89 48 87 36 90 465 4 500 -3 544 -100 597 -103 56 -75 140 57 176 106 29 329 33 460 8z m-5835 -171 c49 -21 60 -38 70 -110 30 -222 46 -733 26 -831 -24 -113 -31 -79 -33 156 -1 203 -11 398 -29 547 -12 98 -35 134 -106 164 -31 12 -38 20 -38 42 0 15 10 38 22 51 19 20 24 21 37 9 9 -8 32 -21 51 -28z m1994 -22 c91 -42 98 -53 253 -390 174 -379 223 -518 223 -632 0 -135 47 -230 134 -270 70 -32 157 -40 220 -20 l48 15 -23 -25 c-13 -13 -47 -36 -76 -50 -47 -24 -62 -26 -133 -22 -146 9 -191 63 -209 254 -16 172 -51 268 -276 758 -38 81 -85 174 -106 206 -32 50 -46 62 -113 94 -76 36 -76 36 -76 75 0 30 6 44 22 55 20 14 23 14 31 0 5 -8 41 -30 81 -48z m-824 -50 c14 -41 24 -303 12 -341 -16 -55 -27 -27 -34 86 -9 142 -19 171 -80 230 -54 52 -57 76 -16 111 19 17 21 16 64 -19 24 -20 48 -50 54 -67z m1683 89 c3 -7 29 -24 57 -36 47 -20 51 -24 48 -53 -5 -47 -38 -59 -97 -34 -25 10 -50 23 -55 28 -15 15 -9 71 10 91 21 23 30 24 37 4z m2444 -69 c50 -25 62 -52 74 -172 17 -163 7 -718 -13 -764 -14 -32 -16 -8 -20 340 -4 258 -9 387 -17 415 -16 48 -44 81 -93 106 -60 31 -72 68 -37 113 l22 27 26 -24 c14 -14 41 -32 58 -41z m839 50 c3 -8 23 -26 44 -40 50 -33 65 -63 79 -153 20 -127 11 -233 -18 -233 -5 0 -11 34 -15 76 -12 128 -46 195 -122 240 -13 8 -19 22 -19 51 0 55 36 97 51 59z m-4316 -11 c0 -2 -10 -10 -22 -16 -21 -11 -22 -11 -9 4 13 16 31 23 31 12z m1796 -83 c-23 -23 -33 -6 -10 19 12 13 20 16 22 9 3 -7 -3 -19 -12 -28z m-3752 13 c3 -9 25 -24 48 -34 24 -10 49 -25 56 -33 7 -9 17 -53 22 -99 5 -46 12 -104 15 -129 3 -25 8 -184 11 -355 l6 -310 -36 -28 -36 -28 0 118 c-1 290 -31 666 -57 720 -12 26 -29 41 -62 56 -25 11 -49 25 -53 31 -16 23 -7 55 23 80 35 30 54 33 63 11z m1964 -6 c7 -11 41 -33 75 -48 99 -45 109 -60 285 -446 166 -365 186 -423 202 -602 12 -123 34 -179 90 -224 44 -36 148 -63 208 -55 38 5 43 4 32 -9 -6 -8 -35 -25 -63 -40 -71 -35 -163 -35 -234 0 -60 30 -103 98 -103 163 0 76 -21 197 -51 284 -55 166 -302 704 -355 774 -19 25 -51 47 -94 67 -72 32 -80 40 -80 77 1 28 16 51 45 68 27 15 28 15 43 -9z m-789 -43 l52 -53 9 -89 c4 -49 7 -90 6 -92 -3 -2 -81 161 -115 241 -11 26 -17 47 -13 47 4 0 31 -24 61 -54z m1739 24 l30 -30 -64 0 c-35 0 -64 4 -64 9 0 11 48 51 61 51 4 0 21 -13 37 -30z m3270 -5 c7 -14 28 -35 47 -47 45 -26 73 -80 80 -155 3 -32 8 -70 10 -85 4 -27 3 -28 -39 -28 l-43 0 -12 55 c-13 59 -45 104 -92 132 -25 15 -29 23 -29 61 0 32 6 49 25 67 30 31 39 31 53 0z m-886 -17 c18 -18 48 -41 66 -50 18 -9 37 -30 43 -45 19 -51 31 -315 26 -566 l-6 -249 -26 -20 c-15 -11 -31 -30 -35 -42 -5 -12 -9 114 -9 304 -1 444 -11 493 -104 546 -48 27 -52 33 -55 71 -3 34 1 44 24 62 34 27 36 27 76 -11z m-4666 -168 c-39 -88 -72 -154 -74 -147 -5 22 128 307 143 307 1 0 -30 -72 -69 -160z m-754 98 c3 -7 27 -24 54 -38 27 -14 54 -36 61 -50 35 -75 59 -857 28 -910 -8 -14 -19 -35 -24 -47 -5 -11 -14 -24 -19 -27 -5 -3 -12 109 -15 272 -4 152 -9 304 -12 337 -28 297 -29 300 -107 341 -65 36 -73 61 -29 104 31 31 56 39 63 18z m5005 -20 c29 -10 77 -39 109 -63 31 -24 61 -46 68 -48 7 -3 6 -15 -6 -40 -24 -51 -54 -49 -122 7 -72 59 -150 87 -257 93 -88 6 -165 -6 -224 -34 l-30 -14 35 32 c44 39 126 78 188 89 65 12 177 1 239 -22z m1233 -62 c40 -26 59 -58 74 -120 l7 -29 -57 5 c-76 6 -84 19 -83 127 0 56 3 79 9 66 4 -12 27 -33 50 -49z m-4101 -37 c52 -71 297 -605 347 -756 24 -74 37 -136 44 -214 10 -114 32 -183 71 -226 37 -38 117 -66 196 -67 82 -1 82 -10 0 -51 -56 -27 -132 -33 -199 -15 -81 23 -137 102 -138 195 -1 151 -46 291 -216 665 -142 311 -187 391 -235 418 -27 16 -29 21 -29 79 l0 62 69 -31 c41 -18 77 -42 90 -59z m-1446 26 c-9 -19 -18 -33 -21 -31 -4 5 26 66 33 66 3 0 -3 -16 -12 -35z m4657 5 c81 -41 85 -65 85 -535 0 -317 -1 -344 -20 -385 -19 -43 -32 -60 -47 -60 -5 0 -8 154 -8 343 0 449 -10 506 -91 548 -23 11 -39 22 -37 25 14 17 74 82 76 83 1 1 21 -8 42 -19z m-428 -50 c29 -11 76 -37 103 -58 54 -41 59 -62 29 -109 -22 -34 -54 -28 -118 21 -31 25 -83 55 -114 67 -67 25 -214 36 -282 21 -41 -10 -43 -9 -25 4 34 26 113 64 152 73 60 14 195 4 255 -19z m-1156 -106 c-38 -108 -45 -279 -15 -399 58 -240 273 -470 523 -561 205 -74 379 -71 581 10 88 36 119 41 162 30 30 -8 16 -34 -33 -64 -33 -21 -39 -22 -92 -10 -56 12 -59 11 -157 -29 -134 -54 -182 -64 -300 -63 -294 2 -579 179 -706 437 -52 108 -69 179 -69 301 0 121 23 221 75 324 39 77 54 89 31 24z m1523 -8 c15 -32 30 -135 31 -210 l0 -50 -32 31 c-42 39 -63 49 -119 58 -51 8 -107 -11 -147 -48 -13 -12 -52 -62 -87 -112 -35 -49 -77 -98 -94 -108 -17 -10 -36 -27 -41 -37 -15 -28 -56 -47 -128 -60 -116 -21 -202 24 -249 128 -18 41 -23 176 -10 254 8 44 10 48 44 54 55 10 172 -2 233 -25 30 -11 79 -41 109 -65 61 -50 87 -58 128 -41 31 13 63 54 63 80 0 9 19 24 45 35 36 15 50 29 64 61 14 31 29 46 60 60 23 10 44 25 47 33 9 23 66 -3 83 -38z m-559 13 c72 -11 164 -56 205 -99 l27 -29 -18 -38 c-26 -53 -53 -54 -117 -5 -100 76 -176 102 -305 102 -91 0 -101 10 -45 43 59 34 148 43 253 26z m-915 -67 c-32 -372 267 -732 677 -816 154 -32 282 -17 451 50 81 32 94 35 152 29 58 -7 64 -9 55 -25 -5 -10 -26 -28 -46 -40 -32 -21 -40 -22 -90 -11 -49 9 -62 8 -112 -11 -214 -80 -221 -81 -342 -81 -94 1 -131 6 -205 27 -229 69 -404 210 -505 406 -62 122 -84 240 -70 377 8 74 28 163 37 163 2 0 2 -31 -2 -68z m-176 -87 c-72 -259 2 -528 200 -726 194 -194 482 -293 727 -248 32 6 106 29 163 51 81 32 112 39 143 35 50 -7 55 -12 34 -36 -36 -39 -78 -52 -137 -40 -52 11 -58 10 -154 -29 -129 -53 -179 -63 -295 -64 -352 -1 -681 250 -764 583 -22 89 -21 237 2 325 18 65 90 230 97 222 2 -2 -5 -35 -16 -73z m-2338 -294 c97 -211 169 -338 210 -376 23 -20 61 -41 93 -50 62 -18 228 -24 319 -11 57 7 58 7 47 -13 -26 -49 -146 -76 -309 -69 -131 6 -185 26 -231 90 -18 23 -82 144 -142 268 -75 154 -120 234 -144 256 l-34 33 36 38 36 38 28 -34 c16 -18 57 -95 91 -170z m5218 143 c19 -6 9 -205 -12 -255 -15 -34 -15 -34 -16 49 -1 46 -5 92 -11 102 -16 29 -66 40 -186 40 l-114 0 0 24 c0 46 26 53 182 49 79 -2 149 -6 157 -9z m-5269 -328 c131 -262 166 -313 232 -347 47 -24 179 -37 300 -29 70 5 75 4 67 -12 -25 -47 -151 -73 -309 -66 -124 6 -184 27 -222 79 -36 49 -109 187 -173 329 -31 68 -69 143 -86 168 l-30 44 26 45 c47 78 54 71 195 -211z m5186 203 c24 -20 11 -182 -17 -210 -11 -11 -22 -33 -26 -50 -12 -62 -23 -37 -23 54 0 127 -9 138 -113 145 l-77 5 0 40 0 40 120 -6 c77 -3 126 -10 136 -18z m-5355 -217 c22 -48 70 -148 107 -222 117 -235 163 -264 412 -258 77 2 140 0 140 -4 0 -14 -54 -48 -94 -60 -24 -7 -102 -12 -186 -13 -132 0 -149 2 -193 23 -63 32 -88 70 -214 328 l-103 214 31 61 c30 60 31 61 46 40 8 -12 32 -61 54 -109z m5241 102 c4 -3 8 -36 8 -75 l0 -69 -43 42 c-24 24 -55 53 -70 65 -15 12 -27 29 -27 39 0 15 8 16 62 10 34 -4 66 -10 70 -12z m-809 -228 c9 -23 94 -68 164 -87 129 -36 382 -43 497 -14 26 7 27 6 17 -14 -60 -111 -589 -105 -711 9 -37 35 -41 81 -8 104 28 20 34 20 41 2z m974 -74 c26 -11 77 -26 113 -32 82 -16 359 -16 424 -1 27 7 51 9 55 5 12 -11 -49 -53 -102 -70 -108 -33 -406 -29 -529 8 -86 26 -125 101 -77 149 l22 22 23 -30 c13 -17 45 -39 71 -51z m-6246 34 c21 -20 61 -42 91 -51 77 -23 240 -36 333 -26 44 4 81 7 83 6 2 -1 -9 -16 -23 -33 -36 -43 -106 -56 -270 -49 -196 8 -295 48 -295 120 0 26 23 67 38 67 2 0 22 -15 43 -34z m5258 -131 c103 -52 289 -77 476 -64 50 4 92 5 95 2 10 -10 -44 -43 -93 -58 -110 -34 -373 -28 -499 10 -142 42 -190 116 -111 170 l38 25 23 -30 c13 -17 45 -41 71 -55z m888 -13 c67 -37 162 -52 334 -52 86 -1 176 2 200 5 l44 6 -28 -25 c-41 -38 -117 -56 -257 -63 -235 -11 -421 30 -444 98 -13 39 0 74 36 97 l31 20 22 -31 c11 -18 39 -42 62 -55z m-6257 52 c36 -67 166 -105 361 -105 94 0 129 -3 127 -11 -8 -22 -56 -50 -99 -59 -105 -20 -347 -2 -410 31 -77 40 -92 100 -36 144 40 32 40 32 57 0z m5255 -161 c90 -45 168 -58 372 -58 124 0 192 -4 190 -10 -6 -20 -94 -55 -167 -66 -139 -21 -402 6 -491 52 -45 23 -79 64 -79 95 0 16 12 32 37 48 l37 26 30 -34 c17 -18 49 -42 71 -53z m815 53 c0 -7 10 -22 23 -33 69 -64 189 -86 434 -81 l184 3 -26 -22 c-51 -45 -125 -58 -315 -58 -186 1 -269 12 -332 48 -67 37 -75 108 -16 145 33 21 48 20 48 -2z m-6171 -27 c56 -63 120 -81 319 -87 162 -4 163 -5 145 -24 -42 -46 -70 -53 -228 -53 -116 0 -165 4 -218 19 -119 33 -159 96 -98 157 16 16 33 29 36 29 4 0 24 -18 44 -41z"/>
 <path d="M5442 2754 c-29 -20 -28 -35 13 -149 54 -150 78 -185 126 -185 15 0 39 10 53 23 30 26 107 163 132 236 l19 53 -24 19 c-20 17 -40 19 -160 19 -107 0 -141 -3 -159 -16z m277 -33 c12 -8 12 -16 -3 -55 -17 -44 -19 -45 -39 -31 -15 11 -47 15 -108 15 l-86 0 -10 35 c-8 25 -8 35 1 39 21 8 231 6 245 -3z m-79 -121 c12 -8 10 -19 -20 -77 -27 -53 -35 -63 -38 -46 -2 13 -16 31 -31 42 -15 11 -32 36 -38 55 l-11 36 61 0 c34 0 69 -5 77 -10z"/>
 </g>
<g id="enclosedArea" fill="none" stroke="none">
 <path d="M9703 5513 c9 -2 23 -2 30 0 6 3 -1 5 -18 5 -16 0 -22 -2 -12 -5z"/>
 <path d="M9863 5513 c9 -2 23 -2 30 0 6 3 -1 5 -18 5 -16 0 -22 -2 -12 -5z"/>
 <path d="M5493 5503 c26 -2 67 -2 90 0 23 2 2 3 -48 3 -49 0 -68 -1 -42 -3z"/>
 <path d="M7353 5503 c32 -2 81 -2 110 0 29 2 3 3 -58 3 -60 0 -84 -1 -52 -3z"/>
 <path d="M3348 5493 c12 -2 30 -2 40 0 9 3 -1 5 -23 4 -22 0 -30 -2 -17 -4z"/>
 <path d="M3663 5493 c15 -2 37 -2 50 0 12 2 0 4 -28 4 -27 0 -38 -2 -22 -4z"/>
 <path d="M5378 5493 c6 -2 18 -2 25 0 6 3 1 5 -13 5 -14 0 -19 -2 -12 -5z"/>
 <path d="M8683 5493 c9 -2 25 -2 35 0 9 3 1 5 -18 5 -19 0 -27 -2 -17 -5z"/>
 <path d="M8958 5493 c12 -2 32 -2 45 0 12 2 2 4 -23 4 -25 0 -35 -2 -22 -4z"/>
 <path d="M3798 5483 c6 -2 18 -2 25 0 6 3 1 5 -13 5 -14 0 -19 -2 -12 -5z"/>
 <path d="M9638 5456 c-136 -37 -197 -124 -263 -381 -19 -77 -45 -159 -57 -183 -25 -53 -78 -90 -140 -98 -41 -6 -49 -3 -71 18 -31 31 -41 95 -33 220 12 171 18 188 91 238 44 30 46 34 43 73 -4 53 -42 80 -134 96 -83 15 -380 15 -459 0 -159 -29 -213 -116 -115 -184 25 -17 55 -46 67 -64 40 -59 44 -117 41 -538 -3 -361 -5 -402 -22 -441 -19 -43 -50 -74 -105 -104 -26 -14 -31 -23 -31 -53 0 -25 7 -43 25 -59 43 -40 97 -50 245 -46 178 5 324 5 555 0 162 -3 200 -1 260 14 146 39 245 107 292 204 25 50 28 68 28 152 -1 140 -40 214 -151 285 -30 19 -55 39 -55 45 -1 5 -2 16 -3 23 -5 27 18 48 94 88 124 64 167 131 196 309 8 47 22 103 32 124 16 39 62 76 94 76 25 0 48 28 48 59 0 58 -65 108 -168 130 -70 15 -245 13 -304 -3z m-426 -856 c48 -14 97 -55 115 -98 8 -19 17 -62 20 -96 13 -145 -44 -253 -139 -263 -61 -7 -94 2 -112 30 -16 24 -21 69 -31 264 -7 121 -7 122 19 148 28 28 66 32 128 15z"/>
 <path d="M9122 4562 c-7 -2 -12 -22 -12 -45 0 -37 4 -45 36 -65 50 -33 77 -98 78 -189 1 -40 4 -73 7 -73 12 0 48 46 59 75 16 42 14 177 -4 218 -8 20 -26 43 -41 53 -27 18 -101 34 -123 26z"/>
 <path d="M9113 4354 c4 -38 7 -86 7 -106 0 -38 20 -68 46 -68 25 0 19 136 -8 190 -37 71 -52 66 -45 -16z"/>
 <path d="M3345 5449 c-142 -11 -205 -43 -205 -106 0 -48 14 -68 57 -86 44 -18 87 -60 103 -101 21 -56 32 -290 28 -604 -3 -308 -4 -318 -27 -365 -18 -37 -36 -55 -79 -80 -49 -28 -57 -38 -60 -66 -4 -37 8 -55 52 -79 34 -18 81 -18 470 -3 151 6 304 5 481 -4 312 -14 300 -17 358 95 68 133 61 279 -13 310 -43 18 -68 5 -150 -80 -61 -64 -86 -82 -135 -100 -75 -27 -218 -44 -290 -35 -109 13 -141 72 -144 261 -2 109 -1 112 23 132 14 11 46 23 70 26 100 15 155 -19 182 -111 18 -62 36 -83 70 -83 79 0 114 91 115 299 1 185 -35 304 -101 331 -54 22 -70 4 -91 -104 -18 -96 -91 -146 -192 -132 -69 10 -72 17 -75 188 -5 224 18 279 130 310 59 16 84 47 72 93 -15 62 -104 84 -369 93 -110 4 -236 4 -280 1z"/>
 <path d="M5350 5441 c-278 -61 -494 -264 -572 -536 -18 -65 -22 -105 -22 -210 0 -155 14 -220 78 -350 94 -190 259 -320 493 -387 115 -33 344 -33 458 0 151 44 280 128 381 249 63 77 145 237 169 331 48 190 16 394 -86 552 -105 163 -261 275 -466 336 -121 36 -310 42 -433 15z m367 -272 c73 -27 122 -108 130 -214 11 -137 -52 -403 -129 -547 -107 -200 -289 -261 -397 -132 -63 78 -76 184 -41 357 54 264 160 470 272 526 47 23 119 28 165 10z"/>
 <path d="M5600 5134 c-27 -11 -90 -56 -90 -65 0 -5 13 -9 28 -9 42 0 114 -41 140 -79 39 -60 55 -135 48 -226 -7 -92 -44 -265 -75 -345 -15 -40 -16 -49 -5 -35 76 99 154 364 157 536 1 72 -3 93 -23 134 -14 27 -37 58 -51 68 -27 19 -102 31 -129 21z"/>
 <path d="M5482 5013 c-18 -4 -52 -47 -52 -67 0 -3 19 -14 43 -24 50 -22 100 -76 118 -129 29 -83 6 -302 -50 -468 -11 -33 -18 -61 -16 -63 7 -8 45 63 75 141 55 140 74 239 75 377 0 114 -2 128 -23 163 -34 54 -105 84 -170 70z"/>
 <path d="M5384 4844 l-17 -45 35 -29 c20 -16 45 -53 58 -82 29 -68 30 -183 1 -325 -25 -120 -24 -113 -7 -113 14 0 46 78 70 171 42 168 46 327 10 390 -24 40 -78 79 -110 79 -17 0 -26 -10 -40 -46z"/>
 <path d="M5375 4730 c10 -11 20 -20 23 -20 3 0 -3 9 -13 20 -10 11 -20 20 -23 20 -3 0 3 -9 13 -20z"/>
 <path d="M5303 4475 c0 -33 2 -45 4 -27 2 18 2 45 0 60 -2 15 -4 0 -4 -33z"/>
 <path d="M5432 4480 c0 -14 2 -19 5 -12 2 6 2 18 0 25 -3 6 -5 1 -5 -13z"/>
 <path d="M5362 4295 c15 -16 29 -27 31 -24 3 2 -10 15 -27 28 l-31 24 27 -28z"/>
 <path d="M7215 5450 c-224 -35 -396 -143 -476 -301 -56 -112 -59 -141 -59 -524 0 -202 -4 -365 -10 -385 -6 -22 -31 -55 -70 -91 -49 -46 -60 -62 -60 -88 0 -84 117 -120 395 -122 222 0 335 20 376 67 44 51 30 103 -33 132 -52 23 -75 48 -94 99 -19 55 -19 562 0 654 43 201 158 292 361 285 73 -2 93 -7 152 -37 45 -22 78 -48 100 -77 59 -78 63 -108 63 -479 0 -410 -1 -413 -122 -474 -54 -27 -58 -32 -58 -63 0 -45 42 -80 110 -95 61 -13 331 -15 380 -2 62 16 89 30 106 55 26 40 12 68 -54 109 -32 20 -65 49 -73 64 -11 22 -15 111 -20 423 -5 340 -8 403 -23 450 -66 203 -197 322 -421 381 -91 24 -364 35 -470 19z"/>
 <path d="M3124 5428 l-19 -23 23 19 c21 18 27 26 19 26 -2 0 -12 -10 -23 -22z"/>
 <path d="M9469 5413 l-24 -28 28 24 c15 14 27 26 27 28 0 8 -8 1 -31 -24z"/>
 <path d="M10152 5325 c0 -16 2 -22 5 -12 2 9 2 23 0 30 -3 6 -5 -1 -5 -18z"/>
 <path d="M6794 5308 l-29 -33 33 29 c30 28 37 36 29 36 -2 0 -16 -15 -33 -32z"/>
 <path d="M3004 5308 l-19 -23 23 19 c21 18 27 26 19 26 -2 0 -12 -10 -23 -22z"/>
 <path d="M4930 5265 c-24 -25 -42 -45 -39 -45 3 0 25 20 49 45 24 25 42 45 39 45 -3 0 -25 -20 -49 -45z"/>
 <path d="M9344 5288 l-19 -23 23 19 c21 18 27 26 19 26 -2 0 -12 -10 -23 -22z"/>
 <path d="M3046 5279 c-23 -18 -27 -27 -24 -67 3 -45 5 -47 58 -77 115 -64 124 -107 125 -612 0 -205 3 -373 7 -373 15 0 49 46 58 79 13 47 13 754 0 846 -12 84 -31 113 -94 143 -27 13 -55 36 -64 52 -20 36 -31 37 -66 9z"/>
 <path d="M8359 5261 c-46 -47 -40 -82 21 -128 35 -26 59 -55 78 -93 l27 -55 0 -412 c0 -396 1 -411 18 -401 11 5 29 31 40 56 21 46 22 58 22 452 0 476 1 473 -92 541 -30 22 -57 47 -60 55 -8 21 -21 17 -54 -15z"/>
 <path d="M6180 5245 c19 -19 36 -35 39 -35 3 0 -10 16 -29 35 -19 19 -36 35 -39 35 -3 0 10 -16 29 -35z"/>
 <path d="M9340 5198 c-31 -55 -69 -165 -94 -276 l-15 -64 21 19 c32 29 46 64 77 195 16 68 34 135 40 151 16 42 4 32 -29 -25z"/>
 <path d="M9154 5208 l-19 -23 23 19 c21 18 27 26 19 26 -2 0 -12 -10 -23 -22z"/>
 <path d="M6669 5183 l-24 -28 28 24 c25 23 32 31 24 31 -2 0 -14 -12 -28 -27z"/>
 <path d="M4810 5145 c-24 -25 -42 -45 -39 -45 3 0 25 20 49 45 24 25 42 45 39 45 -3 0 -25 -20 -49 -45z"/>
 <path d="M2926 5158 c-14 -13 -26 -34 -27 -48 -5 -61 0 -68 61 -101 115 -61 119 -80 121 -617 2 -356 7 -405 32 -326 6 16 18 40 28 53 18 22 19 48 19 385 -1 486 -10 548 -88 583 -44 20 -92 62 -92 80 0 20 -26 15 -54 -9z"/>
 <path d="M8253 5150 c-35 -21 -56 -73 -41 -102 5 -10 18 -23 31 -29 44 -23 87 -73 104 -123 16 -46 18 -94 18 -453 0 -264 3 -402 10 -400 6 2 22 28 37 58 l28 54 0 410 c0 406 0 411 -22 455 -13 25 -43 60 -68 78 -25 19 -50 43 -55 53 -10 18 -11 18 -42 -1z"/>
 <path d="M7403 5118 c-17 -6 -46 -22 -63 -37 l-32 -26 89 -1 c124 -1 183 -22 253 -93 86 -86 90 -108 90 -490 0 -308 0 -312 20 -301 11 6 28 25 37 43 16 28 18 69 21 345 3 344 -2 392 -48 465 -46 72 -109 100 -235 103 -55 2 -114 -2 -132 -8z"/>
 <path d="M9122 5110 c0 -14 2 -19 5 -12 2 6 2 18 0 25 -3 6 -5 1 -5 -13z"/>
 <path d="M9238 5108 c-34 -52 -63 -118 -84 -190 l-22 -78 24 0 c25 0 22 -7 64 157 11 45 25 94 30 108 12 31 7 32 -12 3z"/>
 <path d="M3833 5095 c-3 -9 -3 -18 -1 -21 3 -3 8 4 11 16 6 23 -1 27 -10 5z"/>
 <path d="M6652 5088 c-20 -26 -61 -116 -78 -173 -16 -53 -18 -98 -15 -395 1 -184 5 -337 8 -340 3 -3 18 10 33 29 l29 34 3 376 c3 301 7 386 20 429 16 55 16 59 0 40z"/>
 <path d="M6549 5063 l-24 -28 28 24 c15 14 27 26 27 28 0 8 -8 1 -31 -24z"/>
 <path d="M2812 5040 c-66 -40 -54 -109 27 -155 62 -34 88 -65 103 -121 7 -24 13 -201 15 -452 4 -341 7 -411 18 -402 7 6 16 23 20 38 4 15 14 35 23 46 15 16 17 58 18 395 2 406 -6 506 -45 544 -11 11 -41 32 -68 46 -26 14 -53 36 -59 49 -16 33 -17 33 -52 12z"/>
 <path d="M4689 5023 l-34 -38 38 34 c20 19 37 36 37 38 0 8 -8 0 -41 -34z"/>
 <path d="M8161 4998 c4 -24 8 -63 9 -86 0 -27 8 -55 20 -72 46 -65 50 -96 50 -399 l0 -287 40 -27 40 -26 0 372 c-1 410 -4 431 -60 477 -17 14 -47 40 -67 58 -19 17 -36 32 -38 32 -1 0 1 -19 6 -42z"/>
 <path d="M4716 4928 c-67 -136 -81 -197 -81 -363 0 -119 4 -151 23 -215 37 -116 88 -204 170 -291 156 -166 358 -249 607 -249 158 0 296 34 409 101 42 25 42 35 0 19 -95 -37 -297 -54 -419 -37 -334 49 -589 258 -685 562 -43 137 -38 379 11 509 30 81 14 64 -35 -36z"/>
 <path d="M7292 4999 c-27 -8 -52 -38 -52 -63 0 -2 35 -5 79 -8 145 -8 242 -79 281 -206 18 -58 20 -94 20 -376 l0 -311 19 41 c11 23 27 47 38 52 17 10 18 30 18 334 0 376 -3 395 -74 469 -34 35 -60 51 -100 63 -59 17 -177 20 -229 5z"/>
 <path d="M6514 4938 c-73 -115 -85 -203 -82 -583 l3 -310 37 38 37 37 3 383 c3 317 7 390 20 430 9 26 14 47 12 47 -2 0 -16 -19 -30 -42z"/>
 <path d="M3833 4880 c0 -30 2 -43 4 -27 2 15 2 39 0 55 -2 15 -4 2 -4 -28z"/>
 <path d="M4564 4898 l-29 -33 33 29 c17 17 32 31 32 33 0 8 -8 1 -36 -29z"/>
 <path d="M7228 4884 c-5 -4 -8 -22 -8 -40 0 -31 3 -33 53 -48 128 -37 203 -128 221 -267 3 -19 5 -164 6 -324 l0 -290 19 41 c10 23 26 44 35 47 14 6 16 42 16 344 -1 256 -4 347 -14 376 -35 97 -121 155 -248 164 -40 3 -76 2 -80 -3z"/>
 <path d="M3962 4868 c-15 -15 -16 -48 -2 -48 6 0 19 9 30 20 11 11 20 25 20 30 0 14 -33 13 -48 -2z"/>
 <path d="M4586 4789 c-55 -117 -83 -247 -77 -361 1 -9 16 -25 34 -36 47 -27 71 -82 70 -163 0 -36 -6 -82 -12 -102 -11 -33 -10 -41 10 -74 188 -304 601 -444 966 -328 71 23 190 82 181 90 -2 2 -41 -8 -88 -22 -112 -33 -301 -37 -430 -10 -256 55 -447 193 -563 407 -97 178 -119 423 -57 621 10 35 17 65 15 68 -3 2 -25 -38 -49 -90z"/>
 <path d="M6410 4846 c-6 -8 -10 -25 -8 -38 2 -19 5 -17 15 15 12 41 11 44 -7 23z"/>
 <path d="M2855 4820 c10 -11 20 -20 23 -20 3 0 -3 9 -13 20 -10 11 -20 20 -23 20 -3 0 3 -9 13 -20z"/>
 <path d="M4293 4750 c0 -25 2 -35 4 -22 2 12 2 32 0 45 -2 12 -4 2 -4 -23z"/>
 <path d="M4465 4669 c-41 -86 -75 -205 -75 -263 0 -23 1 -23 35 -8 32 15 35 20 35 58 0 55 25 198 45 253 27 77 7 57 -40 -40z"/>
 <path d="M7214 4530 c0 -129 2 -182 3 -117 2 64 2 170 0 235 -1 64 -3 11 -3 -118z"/>
 <path d="M2902 4700 c0 -14 2 -19 5 -12 2 6 2 18 0 25 -3 6 -5 1 -5 -13z"/>
 <path d="M8192 4700 c0 -14 2 -19 5 -12 2 6 2 18 0 25 -3 6 -5 1 -5 -13z"/>
 <path d="M2914 4390 c0 -129 2 -182 3 -117 2 64 2 170 0 235 -1 64 -3 11 -3 -118z"/>
 <path d="M4293 4585 c0 -22 2 -30 4 -17 2 12 2 30 0 40 -3 9 -5 -1 -4 -23z"/>
 <path d="M9795 4590 c10 -11 20 -20 23 -20 3 0 -3 9 -13 20 -10 11 -20 20 -23 20 -3 0 3 -9 13 -20z"/>
 <path d="M6351 4460 l-34 -95 -4 -217 c-2 -134 0 -218 6 -218 14 0 60 58 66 83 3 12 4 139 3 282 l-3 260 -34 -95z"/>
 <path d="M3848 4509 c-11 -6 -18 -22 -18 -39 0 -24 4 -30 21 -30 32 0 76 -51 93 -110 21 -69 31 -80 76 -80 30 0 43 6 59 26 27 35 27 41 -8 73 -17 16 -35 49 -44 82 -22 74 -40 89 -108 89 -30 0 -62 -5 -71 -11z"/>
 <path d="M4342 4415 c0 -16 2 -22 5 -12 2 9 2 23 0 30 -3 6 -5 -1 -5 -18z"/>
 <path d="M3834 4338 c9 -76 28 -123 54 -137 21 -11 92 -15 92 -5 0 3 -13 16 -29 30 -20 16 -35 44 -46 80 -15 54 -44 94 -66 94 -8 0 -9 -18 -5 -62z"/>
 <path d="M9903 4315 c0 -33 2 -45 4 -27 2 18 2 45 0 60 -2 15 -4 0 -4 -33z"/>
 <path d="M4088 4193 c6 -2 18 -2 25 0 6 3 1 5 -13 5 -14 0 -19 -2 -12 -5z"/>
 <path d="M6129 4103 l-24 -28 28 24 c25 23 32 31 24 31 -2 0 -14 -12 -28 -27z"/>
 <path d="M9794 4048 l-19 -23 23 19 c12 11 22 21 22 23 0 8 -8 2 -26 -19z"/>
 <path d="M6456 4006 c-32 -30 -37 -40 -34 -73 2 -30 10 -42 37 -60 45 -30 86 -41 212 -54 108 -11 301 -5 399 13 60 11 126 43 135 66 4 12 -1 13 -27 7 -18 -4 -105 -8 -193 -10 -285 -6 -444 33 -479 116 l-12 29 -38 -34z"/>
 <path d="M4560 4021 c0 -5 -15 -30 -34 -54 l-34 -45 42 -53 c163 -207 398 -312 681 -304 146 4 243 27 356 86 44 23 78 43 77 45 -2 1 -41 -9 -88 -22 -228 -67 -510 -30 -719 93 -79 47 -186 145 -232 212 -32 48 -49 62 -49 42z"/>
 <path d="M6015 3988 l-40 -43 43 40 c39 36 47 45 39 45 -2 0 -21 -19 -42 -42z"/>
 <path d="M8367 3988 c-36 -18 -42 -30 -37 -73 3 -29 20 -46 70 -69 41 -19 59 -21 205 -17 241 6 283 6 505 -1 217 -8 278 -2 387 40 58 22 143 78 103 68 -122 -32 -161 -34 -595 -31 -489 2 -504 4 -566 66 l-36 36 -36 -19z"/>
 <path d="M2913 3955 c0 -27 2 -38 4 -22 2 15 2 37 0 50 -2 12 -4 0 -4 -28z"/>
 <path d="M3073 3973 c-39 -20 -49 -45 -32 -84 24 -58 52 -65 264 -59 278 7 677 6 859 -3 l158 -7 36 37 35 38 -64 7 c-161 16 -500 20 -769 8 -321 -14 -347 -11 -409 46 -21 18 -40 34 -42 33 -2 0 -19 -8 -36 -16z"/>
 <path d="M7588 3972 c-22 -13 -28 -24 -28 -54 0 -71 70 -97 275 -103 152 -4 251 10 294 43 47 35 36 38 -111 36 -79 -2 -170 1 -203 7 -69 11 -142 45 -156 71 -12 22 -36 22 -71 0z"/>
 <path d="M9674 3928 l-19 -23 23 19 c12 11 22 21 22 23 0 8 -8 2 -26 -19z"/>
 <path d="M5900 3875 c-24 -25 -42 -45 -39 -45 3 0 25 20 49 45 24 25 42 45 39 45 -3 0 -25 -20 -49 -45z"/>
 <path d="M6331 3881 c-23 -22 -31 -38 -31 -64 0 -81 90 -114 335 -124 231 -9 417 24 447 80 9 18 8 19 -13 13 -13 -4 -101 -10 -196 -13 -186 -6 -302 5 -387 38 -51 19 -106 63 -106 86 0 20 -15 15 -49 -16z"/>
 <path d="M8246 3868 c-70 -36 -53 -112 31 -145 44 -16 85 -18 513 -18 451 1 467 1 535 23 66 21 181 79 173 87 -2 3 -26 -3 -53 -12 -43 -14 -115 -17 -515 -19 -528 -2 -546 0 -611 65 l-38 37 -35 -18z"/>
 <path d="M2961 3852 c-19 -9 -39 -25 -45 -34 -15 -24 3 -66 37 -92 28 -20 37 -21 255 -16 350 7 599 6 805 -3 l188 -9 36 39 36 38 -109 7 c-176 12 -520 14 -789 4 -225 -7 -254 -6 -293 9 -23 10 -52 30 -65 45 -22 28 -22 28 -56 12z"/>
 <path d="M7473 3851 c-40 -25 -50 -54 -29 -86 34 -51 128 -75 300 -75 124 0 217 16 258 44 57 38 47 42 -101 38 -201 -6 -311 18 -365 77 -23 26 -23 26 -63 2z"/>
 <path d="M9554 3808 l-29 -33 33 29 c17 17 32 31 32 33 0 8 -8 1 -36 -29z"/>
 <path d="M4530 3795 c13 -14 26 -25 28 -25 3 0 -5 11 -18 25 -13 14 -26 25 -28 25 -3 0 5 -11 18 -25z"/>
 <path d="M5775 3748 l-50 -53 53 50 c48 46 57 55 49 55 -1 0 -25 -24 -52 -52z"/>
 <path d="M6217 3767 c-51 -43 -53 -109 -3 -142 52 -34 128 -47 316 -52 139 -4 207 -1 272 10 78 14 158 47 158 65 0 4 -111 7 -247 7 -232 0 -253 2 -322 23 -70 22 -109 49 -136 94 -9 16 -12 15 -38 -5z"/>
 <path d="M8125 3747 c-49 -27 -58 -68 -25 -110 33 -42 104 -58 245 -55 66 1 259 1 428 -1 262 -2 320 0 385 14 73 16 163 55 207 89 18 14 15 14 -30 0 -92 -27 -202 -33 -422 -22 -149 7 -254 7 -351 0 -210 -17 -339 9 -380 77 l-18 30 -39 -22z"/>
 <path d="M9484 3748 l-19 -23 23 19 c12 11 22 21 22 23 0 8 -8 2 -26 -19z"/>
 <path d="M2764 3738 l-19 -23 23 19 c21 18 27 26 19 26 -2 0 -12 -10 -23 -22z"/>
 <path d="M2833 3726 c-64 -36 -55 -99 19 -132 37 -17 60 -17 376 -6 238 9 390 9 517 2 99 -5 215 -10 259 -10 78 0 79 0 114 38 l35 37 -234 11 c-211 10 -611 5 -814 -10 -91 -7 -153 10 -197 54 l-37 37 -38 -21z"/>
 <path d="M4595 3730 c10 -11 20 -20 23 -20 3 0 -3 9 -13 20 -10 11 -20 20 -23 20 -3 0 3 -9 13 -20z"/>
 <path d="M7349 3727 c-60 -40 -48 -95 29 -130 66 -29 336 -37 432 -13 56 14 110 47 110 65 0 3 -66 5 -147 3 -212 -4 -319 19 -361 79 -17 24 -22 24 -63 -4z"/>
 <path d="M9424 3678 l-29 -33 33 29 c30 28 37 36 29 36 -2 0 -16 -15 -33 -32z"/>
 <path d="M2742 3670 c0 -19 2 -27 5 -17 2 9 2 25 0 35 -3 9 -5 1 -5 -18z"/>
 <path d="M6155 3610 c10 -11 20 -20 23 -20 3 0 -3 9 -13 20 -10 11 -20 20 -23 20 -3 0 3 -9 13 -20z"/>
 <path d="M4134 3568 l-19 -23 23 19 c21 18 27 26 19 26 -2 0 -12 -10 -23 -22z"/>
 <path d="M3508 3553 c12 -2 32 -2 45 0 12 2 2 4 -23 4 -25 0 -35 -2 -22 -4z"/>
 <path d="M3227 3543 c18 -2 50 -2 70 0 21 2 7 4 -32 4 -38 0 -55 -2 -38 -4z"/>
 <path d="M3723 3543 c15 -2 39 -2 55 0 15 2 2 4 -28 4 -30 0 -43 -2 -27 -4z"/>
 <path d="M8553 3543 c32 -2 81 -2 110 0 29 2 3 3 -58 3 -60 0 -84 -1 -52 -3z"/>
 <path d="M2998 3533 c17 -2 47 -2 65 0 17 2 3 4 -33 4 -36 0 -50 -2 -32 -4z"/>
 <path d="M3938 3533 c18 -2 45 -2 60 0 15 2 0 4 -33 4 -33 0 -45 -2 -27 -4z"/>
 <path d="M6348 3533 c6 -2 18 -2 25 0 6 3 1 5 -13 5 -14 0 -19 -2 -12 -5z"/>
 <path d="M6778 3533 c6 -2 18 -2 25 0 6 3 1 5 -13 5 -14 0 -19 -2 -12 -5z"/>
 <path d="M8233 3533 c9 -2 23 -2 30 0 6 3 -1 5 -18 5 -16 0 -22 -2 -12 -5z"/>
 <path d="M8378 3533 c12 -2 32 -2 45 0 12 2 2 4 -23 4 -25 0 -35 -2 -22 -4z"/>
 <path d="M8827 3533 c18 -2 50 -2 70 0 21 2 7 4 -32 4 -38 0 -55 -2 -38 -4z"/>
 <path d="M9053 3533 c9 -2 23 -2 30 0 6 3 -1 5 -18 5 -16 0 -22 -2 -12 -5z"/>
 <path d="M6503 3523 c43 -2 110 -2 150 0 40 1 5 3 -78 3 -82 0 -115 -2 -72 -3z"/>
 <path d="M7553 3523 c37 -2 97 -2 135 0 37 2 6 3 -68 3 -74 0 -105 -1 -67 -3z"/>
 <path d="M5173 3513 c15 -2 37 -2 50 0 12 2 0 4 -28 4 -27 0 -38 -2 -22 -4z"/>
 <path d="M7173 3403 c9 -2 25 -2 35 0 9 3 1 5 -18 5 -19 0 -27 -2 -17 -5z"/>
 <path d="M7313 3403 c9 -2 25 -2 35 0 9 3 1 5 -18 5 -19 0 -27 -2 -17 -5z"/>
 <path d="M2978 3393 c6 -2 18 -2 25 0 6 3 1 5 -13 5 -14 0 -19 -2 -12 -5z"/>
 <path d="M4153 3393 c9 -2 23 -2 30 0 6 3 -1 5 -18 5 -16 0 -22 -2 -12 -5z"/>
 <path d="M4513 3393 c9 -2 23 -2 30 0 6 3 -1 5 -18 5 -16 0 -22 -2 -12 -5z"/>
 <path d="M4968 3393 c6 -2 18 -2 25 0 6 3 1 5 -13 5 -14 0 -19 -2 -12 -5z"/>
 <path d="M5258 3393 c6 -2 18 -2 25 0 6 3 1 5 -13 5 -14 0 -19 -2 -12 -5z"/>
 <path d="M5933 3393 c9 -2 23 -2 30 0 6 3 -1 5 -18 5 -16 0 -22 -2 -12 -5z"/>
 <path d="M6398 3393 c6 -2 18 -2 25 0 6 3 1 5 -13 5 -14 0 -19 -2 -12 -5z"/>
 <path d="M8353 3393 c9 -2 23 -2 30 0 6 3 -1 5 -18 5 -16 0 -22 -2 -12 -5z"/>
 <path d="M8643 3393 c9 -2 23 -2 30 0 6 3 -1 5 -18 5 -16 0 -22 -2 -12 -5z"/>
 <path d="M9233 3393 c9 -2 23 -2 30 0 6 3 -1 5 -18 5 -16 0 -22 -2 -12 -5z"/>
 <path d="M9543 3393 c9 -2 23 -2 30 0 6 3 -1 5 -18 5 -16 0 -22 -2 -12 -5z"/>
 <path d="M7185 3358 c-328 -30 -608 -272 -679 -587 -85 -377 152 -745 559 -867 71 -21 112 -27 195 -28 120 -1 174 10 311 65 92 37 99 38 151 28 68 -14 104 2 148 63 65 90 95 287 56 370 -35 72 -105 111 -177 98 -52 -10 -79 -36 -153 -150 -71 -109 -127 -161 -202 -189 -169 -64 -313 -17 -375 121 -21 47 -24 67 -23 173 1 101 5 133 27 200 28 84 80 181 125 229 87 93 219 142 359 133 108 -7 183 -33 259 -93 32 -24 68 -44 81 -44 34 0 58 44 57 105 -1 99 -105 255 -169 255 -14 0 -74 20 -133 44 -59 24 -125 49 -147 55 -69 18 -186 26 -270 19z"/>
 <path d="M2844 3338 l-19 -23 23 19 c21 18 27 26 19 26 -2 0 -12 -10 -23 -22z"/>
 <path d="M2995 3350 c-133 -19 -181 -106 -81 -144 84 -32 90 -55 114 -416 4 -63 7 -221 7 -350 0 -270 -5 -290 -75 -337 -98 -65 -113 -102 -62 -153 42 -42 118 -61 267 -67 154 -7 231 6 269 43 14 14 80 134 147 266 125 247 181 328 227 328 41 0 80 -49 142 -178 33 -70 85 -176 116 -237 108 -209 125 -220 349 -220 167 0 227 14 265 62 32 41 25 69 -29 126 -26 29 -53 62 -59 73 -34 65 -46 478 -24 804 10 156 21 183 87 231 38 27 45 38 45 65 0 41 -32 68 -109 91 -83 26 -412 25 -494 0 -109 -34 -129 -90 -53 -152 24 -19 49 -48 55 -63 17 -42 31 -260 21 -336 -13 -104 -49 -131 -110 -80 -36 31 -76 107 -175 336 -92 212 -120 260 -148 256 -27 -4 -72 -87 -178 -328 -113 -255 -136 -299 -163 -311 -30 -14 -63 2 -78 39 -14 34 -21 343 -8 396 12 52 38 87 86 112 62 32 55 82 -16 119 -55 28 -226 41 -335 25z"/>
 <path d="M4961 3348 c-103 -16 -143 -50 -127 -112 4 -16 21 -30 58 -46 115 -49 126 -66 305 -460 168 -368 213 -508 213 -656 0 -73 41 -150 95 -178 61 -32 167 -34 233 -6 67 29 162 129 231 243 51 85 237 460 393 792 44 95 93 184 110 202 18 18 53 40 80 49 46 15 48 17 48 53 0 100 -146 138 -490 128 -209 -6 -283 -19 -317 -53 -23 -23 -30 -67 -15 -90 4 -6 28 -20 53 -31 56 -25 61 -33 61 -85 -1 -83 -50 -103 -277 -113 -183 -8 -260 3 -297 45 -39 43 -40 109 -2 139 15 12 34 21 43 21 45 0 73 48 55 95 -23 60 -255 92 -453 63z m800 -597 l24 -19 -19 -53 c-25 -73 -102 -210 -132 -236 -46 -41 -98 -24 -133 44 -20 38 -81 215 -81 234 0 39 36 49 181 49 120 0 140 -2 160 -19z"/>
 <path d="M5474 2724 c-9 -4 -9 -14 -1 -39 l10 -35 86 0 c61 0 93 -4 108 -15 20 -14 22 -13 39 31 15 39 15 47 3 55 -14 9 -224 11 -245 3z"/>
 <path d="M5513 2574 c6 -19 23 -44 38 -55 15 -11 29 -29 31 -42 3 -17 11 -7 38 46 41 81 37 87 -57 87 l-61 0 11 -36z"/>
 <path d="M8370 3350 c-127 -16 -202 -48 -220 -95 -15 -39 3 -70 58 -100 97 -53 104 -97 100 -597 -3 -429 -1 -417 -90 -465 -82 -44 -77 -98 12 -147 84 -46 167 -60 355 -60 180 -1 227 7 286 47 27 18 35 30 37 60 3 39 -16 66 -82 110 -40 28 -53 64 -61 167 -9 120 4 174 45 195 45 23 302 21 350 -3 l35 -17 0 -125 c0 -157 -10 -188 -75 -234 -117 -84 -53 -168 149 -197 115 -16 359 -7 429 17 68 22 102 56 102 101 0 36 -18 58 -80 97 -60 38 -63 63 -64 546 -1 482 -5 457 80 508 72 44 72 108 -1 149 -59 33 -161 47 -340 47 -212 0 -311 -27 -332 -92 -15 -46 -4 -75 40 -107 71 -52 97 -133 97 -306 0 -88 -2 -101 -23 -125 -21 -24 -32 -28 -103 -32 -43 -2 -119 1 -168 6 -75 8 -93 14 -115 36 -25 26 -26 29 -25 159 0 155 16 203 83 257 35 28 41 39 41 70 0 58 -56 99 -165 119 -81 16 -275 22 -355 11z"/>
 <path d="M3678 3343 c6 -2 18 -2 25 0 6 3 1 5 -13 5 -14 0 -19 -2 -12 -5z"/>
 <path d="M4705 3330 c10 -11 20 -20 23 -20 3 0 -3 9 -13 20 -10 11 -20 20 -23 20 -3 0 3 -9 13 -20z"/>
 <path d="M8895 3310 c10 -11 20 -20 23 -20 3 0 -3 9 -13 20 -10 11 -20 20 -23 20 -3 0 3 -9 13 -20z"/>
 <path d="M4782 3270 c0 -14 2 -19 5 -12 2 6 2 18 0 25 -3 6 -5 1 -5 -13z"/>
 <path d="M7728 3283 c6 -2 18 -2 25 0 6 3 1 5 -13 5 -14 0 -19 -2 -12 -5z"/>
 <path d="M5462 3250 c0 -19 2 -27 5 -17 2 9 2 25 0 35 -3 9 -5 1 -5 -18z"/>
 <path d="M7830 3235 c13 -14 26 -25 28 -25 3 0 -5 11 -18 25 -13 14 -26 25 -28 25 -3 0 5 -11 18 -25z"/>
 <path d="M9832 3230 c0 -14 2 -19 5 -12 2 6 2 18 0 25 -3 6 -5 1 -5 -13z"/>
 <path d="M8049 3193 l-24 -28 28 24 c15 14 27 26 27 28 0 8 -8 1 -31 -24z"/>
 <path d="M2802 3187 c-12 -13 -22 -36 -22 -51 0 -22 7 -30 38 -42 71 -30 94 -66 106 -164 18 -149 28 -344 29 -547 2 -235 9 -269 33 -156 20 98 4 609 -26 831 -10 72 -21 89 -70 110 -19 7 -42 20 -51 28 -13 12 -18 11 -37 -9z"/>
 <path d="M4772 3194 c-16 -11 -22 -25 -22 -55 0 -39 0 -39 76 -75 67 -32 81 -44 113 -94 21 -32 68 -125 106 -206 225 -490 260 -586 276 -758 18 -191 63 -245 209 -254 71 -4 86 -2 133 22 29 14 63 37 76 50 l23 25 -48 -15 c-63 -20 -150 -12 -220 20 -87 40 -134 135 -134 270 0 114 -49 253 -223 632 -155 337 -162 348 -253 390 -40 18 -76 40 -81 48 -8 14 -11 14 -31 0z"/>
 <path d="M6670 3165 c-24 -25 -42 -45 -39 -45 3 0 25 20 49 45 24 25 42 45 39 45 -3 0 -25 -20 -49 -45z"/>
 <path d="M8930 3196 c0 -8 4 -17 9 -20 5 -4 7 3 4 14 -6 23 -13 26 -13 6z"/>
 <path d="M3942 3182 c-41 -35 -38 -59 16 -111 61 -59 71 -88 80 -230 7 -113 18 -141 34 -86 12 38 2 300 -12 341 -6 17 -30 47 -54 67 -43 35 -45 36 -64 19z"/>
 <path d="M5706 3181 c-19 -20 -25 -76 -10 -91 5 -5 30 -18 55 -28 59 -25 92 -13 97 34 3 29 -1 33 -48 53 -28 12 -54 29 -57 36 -7 20 -16 19 -37 -4z"/>
 <path d="M8081 3154 c-35 -45 -23 -82 37 -113 49 -25 77 -58 93 -106 8 -28 13 -157 17 -415 4 -348 6 -372 20 -340 20 46 30 601 13 764 -12 120 -24 147 -74 172 -17 9 -44 27 -58 41 l-26 24 -22 -27z"/>
 <path d="M8989 3164 c-21 -25 -17 -95 5 -108 76 -45 110 -112 122 -240 4 -42 10 -76 15 -76 29 0 38 106 18 233 -14 90 -29 120 -79 153 -21 14 -41 32 -44 40 -7 19 -20 18 -37 -2z"/>
 <path d="M4679 3143 c-13 -17 -13 -17 6 -3 11 8 22 16 24 17 2 2 0 3 -6 3 -6 0 -17 -8 -24 -17z"/>
 <path d="M5384 3145 c-3 -8 -4 -20 -2 -27 3 -7 7 -1 10 15 6 29 1 36 -8 12z"/>
 <path d="M6564 3126 c-3 -8 -4 -23 -2 -33 3 -11 6 -6 9 15 6 34 2 42 -7 18z"/>
 <path d="M2644 3098 l-19 -23 23 19 c21 18 27 26 19 26 -2 0 -12 -10 -23 -22z"/>
 <path d="M8860 3105 c-11 -13 -10 -14 4 -9 9 3 16 10 16 15 0 13 -6 11 -20 -6z"/>
 <path d="M6496 3091 c-11 -12 -16 -24 -12 -28 9 -9 39 22 34 37 -2 7 -10 4 -22 -9z"/>
 <path d="M2691 3074 c-30 -25 -39 -57 -23 -80 4 -6 28 -20 53 -31 33 -15 50 -30 62 -56 26 -54 56 -430 57 -720 l0 -118 36 28 36 28 -6 310 c-3 171 -8 330 -11 355 -3 25 -10 83 -15 129 -5 46 -15 90 -22 99 -7 8 -32 23 -56 33 -23 10 -45 25 -48 34 -9 22 -28 19 -63 -11z"/>
 <path d="M4675 3088 c-29 -17 -44 -40 -45 -68 0 -37 8 -45 80 -77 43 -20 75 -42 94 -67 53 -70 300 -608 355 -774 30 -87 51 -208 51 -284 0 -65 43 -133 103 -163 71 -35 163 -35 234 0 28 15 57 32 63 40 11 13 6 14 -32 9 -60 -8 -164 19 -208 55 -56 45 -78 101 -90 224 -16 179 -36 237 -202 602 -176 386 -186 401 -285 446 -34 15 -68 37 -75 48 -15 24 -16 24 -43 9z"/>
 <path d="M3881 3043 c34 -80 112 -243 115 -241 1 2 -2 43 -6 92 l-9 89 -52 53 c-30 30 -57 54 -61 54 -4 0 2 -21 13 -47z"/>
 <path d="M5596 3069 c-14 -11 -26 -25 -26 -30 0 -5 29 -9 64 -9 l64 0 -30 30 c-35 36 -38 36 -72 9z"/>
 <path d="M8885 3055 c-19 -18 -25 -35 -25 -67 0 -38 4 -46 29 -61 47 -28 79 -73 92 -132 l12 -55 43 0 c42 0 43 1 39 28 -2 15 -7 53 -10 85 -7 75 -35 129 -80 155 -19 12 -40 33 -47 47 -14 31 -23 31 -53 0z"/>
 <path d="M7976 3049 c-23 -18 -27 -28 -24 -62 3 -38 7 -44 55 -71 93 -53 103 -102 104 -546 0 -190 4 -316 9 -304 4 12 20 31 35 42 l26 20 6 249 c5 251 -7 515 -26 566 -6 15 -25 36 -43 45 -18 9 -48 32 -66 50 -40 38 -42 38 -76 11z"/>
 <path d="M9712 3027 c-22 -23 -22 -27 -19 -323 l2 -299 3 299 c2 292 3 300 24 323 12 13 19 23 16 23 -2 0 -14 -10 -26 -23z"/>
 <path d="M3432 2998 c-33 -54 -123 -260 -120 -275 2 -7 35 59 74 147 39 88 70 160 69 160 -2 0 -12 -15 -23 -32z"/>
 <path d="M2524 2978 l-19 -23 23 19 c21 18 27 26 19 26 -2 0 -12 -10 -23 -22z"/>
 <path d="M6514 2968 l-19 -23 23 19 c12 11 22 21 22 23 0 8 -8 2 -26 -19z"/>
 <path d="M2569 2950 c-44 -43 -36 -68 29 -104 66 -35 80 -64 92 -190 5 -50 11 -118 15 -151 3 -33 8 -185 12 -337 3 -163 10 -275 15 -272 5 3 14 16 19 27 5 12 16 33 24 47 31 53 7 835 -28 910 -7 14 -34 36 -61 50 -27 14 -51 31 -54 38 -7 21 -32 13 -63 -18z"/>
 <path d="M3292 2960 c0 -14 2 -19 5 -12 2 6 2 18 0 25 -3 6 -5 1 -5 -13z"/>
 <path d="M7398 2970 c-62 -11 -144 -50 -188 -89 l-35 -32 30 14 c59 28 136 40 224 34 107 -6 185 -34 257 -93 68 -56 98 -58 122 -7 12 25 13 37 6 40 -7 2 -37 24 -68 48 -32 24 -80 53 -109 63 -62 23 -174 34 -239 22z"/>
 <path d="M8811 2869 c-1 -108 7 -121 83 -127 l57 -5 -7 29 c-15 62 -34 94 -74 120 -23 16 -46 37 -50 49 -6 13 -9 -10 -9 -66z"/>
 <path d="M4610 2877 c0 -58 2 -63 29 -79 48 -27 93 -107 235 -418 170 -374 215 -514 216 -665 1 -93 57 -172 138 -195 67 -18 143 -12 199 15 82 41 82 50 0 51 -79 1 -159 29 -196 67 -39 43 -61 112 -71 226 -7 78 -20 140 -44 214 -50 151 -295 685 -347 756 -13 17 -49 41 -90 59 l-69 31 0 -62z"/>
 <path d="M6414 2918 l-19 -23 23 19 c12 11 22 21 22 23 0 8 -8 2 -26 -19z"/>
 <path d="M3315 2879 c-9 -17 -15 -33 -13 -35 3 -2 12 12 21 31 21 43 13 47 -8 4z"/>
 <path d="M6415 2870 c-15 -16 -33 -27 -38 -23 -6 4 -7 1 -2 -6 5 -9 17 -4 41 20 19 18 34 34 34 36 0 7 -8 1 -35 -27z"/>
 <path d="M7900 2859 c-19 -22 -37 -41 -38 -43 -2 -3 14 -14 37 -25 81 -42 91 -99 91 -548 0 -189 3 -343 8 -343 15 0 28 17 47 60 19 41 20 68 20 385 0 363 -6 454 -30 491 -12 19 -86 67 -97 63 -2 -1 -19 -19 -38 -40z"/>
 <path d="M7297 2849 c-39 -9 -118 -47 -152 -73 -18 -13 -16 -14 25 -4 68 15 215 4 282 -21 31 -12 83 -42 114 -67 64 -49 96 -55 118 -21 30 47 25 68 -29 109 -27 21 -74 47 -103 58 -60 23 -195 33 -255 19z"/>
 <path d="M4601 2743 c2 -25 2 -26 6 -5 l5 24 26 -24 27 -23 -24 28 c-14 15 -28 27 -33 27 -4 0 -7 -12 -7 -27z"/>
 <path d="M6365 2700 c-52 -103 -75 -203 -75 -324 0 -122 17 -193 69 -301 127 -258 412 -435 706 -437 118 -1 166 9 300 63 98 40 101 41 157 29 53 -12 59 -11 92 10 49 30 63 56 33 64 -43 11 -74 6 -162 -30 -202 -81 -376 -84 -581 -10 -250 91 -465 321 -523 561 -30 120 -23 291 15 399 23 65 8 53 -31 -24z"/>
 <path d="M7182 2729 c-49 -9 -103 -38 -110 -57 -3 -9 18 -12 80 -12 129 0 205 -26 305 -102 64 -49 91 -48 117 5 l18 38 -27 29 c-80 83 -246 126 -383 99z"/>
 <path d="M6431 2689 c-31 -103 -31 -268 0 -382 17 -63 82 -185 133 -249 98 -123 252 -223 421 -274 74 -21 111 -26 205 -27 121 0 128 1 342 81 50 19 63 20 112 11 50 -11 58 -10 90 11 20 12 41 30 46 40 9 16 3 18 -55 25 -58 6 -71 3 -152 -29 -118 -47 -202 -66 -296 -66 -285 0 -584 169 -729 412 -75 127 -114 285 -103 420 4 37 4 68 2 68 -2 0 -9 -19 -16 -41z"/>
 <path d="M2642 2665 c0 -16 2 -22 5 -12 2 9 2 23 0 30 -3 6 -5 -1 -5 -18z"/>
 <path d="M7932 2650 c0 -14 2 -19 5 -12 2 6 2 18 0 25 -3 6 -5 1 -5 -13z"/>
 <path d="M6244 2573 c-114 -240 -98 -490 45 -702 111 -164 299 -290 501 -338 76 -18 233 -19 305 -3 27 6 95 29 150 52 96 39 102 40 154 29 59 -12 101 1 137 40 21 24 16 29 -34 36 -31 4 -62 -3 -143 -35 -57 -22 -131 -45 -163 -51 -245 -45 -533 54 -727 248 -198 198 -272 467 -200 726 11 38 18 71 16 73 -2 2 -20 -32 -41 -75z"/>
 <path d="M4593 2560 c0 -36 2 -50 4 -32 2 17 2 47 0 65 -2 17 -4 3 -4 -33z"/>
 <path d="M7093 2613 c9 -2 23 -2 30 0 6 3 -1 5 -18 5 -16 0 -22 -2 -12 -5z"/>
 <path d="M7183 2613 c9 -2 25 -2 35 0 9 3 1 5 -18 5 -19 0 -27 -2 -17 -5z"/>
 <path d="M2652 2550 c0 -19 2 -27 5 -17 2 9 2 25 0 35 -3 9 -5 1 -5 -18z"/>
 <path d="M7942 2531 l-2 -54 -22 19 -23 18 22 -24 c12 -13 25 -21 28 -18 3 3 4 30 2 59 l-3 54 -2 -54z"/>
 <path d="M7634 2488 l-19 -23 23 19 c12 11 22 21 22 23 0 8 -8 2 -26 -19z"/>
 <path d="M7033 2440 c0 -36 2 -50 4 -32 2 17 2 47 0 65 -2 17 -4 3 -4 -33z"/>
 <path d="M3776 2447 l-36 -38 34 -33 c24 -22 69 -102 144 -256 60 -124 124 -245 142 -268 46 -64 100 -84 231 -90 163 -7 283 20 309 69 11 20 10 20 -47 13 -91 -13 -257 -7 -319 11 -32 9 -70 30 -93 50 -41 38 -113 165 -210 376 -34 75 -75 152 -91 170 l-28 34 -36 -38z"/>
 <path d="M2663 2410 c0 -25 2 -35 4 -22 2 12 2 32 0 45 -2 12 -4 2 -4 -23z"/>
 <path d="M8830 2423 c-11 -8 -20 -25 -20 -39 l0 -24 114 0 c120 0 170 -11 186 -40 6 -10 10 -56 11 -102 1 -83 1 -83 16 -49 21 50 31 249 12 255 -8 3 -78 7 -157 9 -110 3 -147 1 -162 -10z"/>
 <path d="M4603 2365 c0 -22 2 -30 4 -17 2 12 2 30 0 40 -3 9 -5 -1 -4 -23z"/>
 <path d="M3685 2307 l-26 -45 30 -44 c17 -25 55 -100 86 -168 64 -142 137 -280 173 -329 38 -52 98 -73 222 -79 158 -7 284 19 309 66 8 16 3 17 -67 12 -121 -8 -253 5 -300 29 -66 34 -101 85 -232 347 -141 282 -148 289 -195 211z"/>
 <path d="M6118 2323 c-2 -5 0 -42 3 -83 l5 -75 2 83 c2 74 -1 96 -10 75z"/>
 <path d="M8810 2283 l0 -40 77 -5 c104 -7 113 -18 113 -145 0 -91 11 -116 23 -54 4 17 15 39 26 50 28 28 41 190 17 210 -10 8 -59 15 -136 18 l-120 6 0 -40z"/>
 <path d="M4612 2250 c0 -14 2 -19 5 -12 2 6 2 18 0 25 -3 6 -5 1 -5 -13z"/>
 <path d="M9702 2240 c0 -14 2 -19 5 -12 2 6 2 18 0 25 -3 6 -5 1 -5 -13z"/>
 <path d="M2674 2085 c0 -93 2 -133 3 -88 2 45 2 122 0 170 -1 48 -3 12 -3 -82z"/>
 <path d="M3611 2151 l-31 -61 103 -214 c126 -258 151 -296 214 -328 44 -21 61 -23 193 -23 84 1 162 6 186 13 40 12 94 46 94 60 0 4 -63 6 -140 4 -249 -6 -295 23 -412 258 -37 74 -85 174 -107 222 -22 48 -46 97 -54 109 -15 21 -16 20 -46 -40z"/>
 <path d="M8820 2186 c0 -10 12 -27 27 -39 15 -12 46 -41 70 -65 l43 -42 0 69 c0 39 -4 72 -8 75 -4 2 -36 8 -70 12 -54 6 -62 5 -62 -10z"/>
 <path d="M7233 2173 c9 -2 23 -2 30 0 6 3 -1 5 -18 5 -16 0 -22 -2 -12 -5z"/>
 <path d="M4670 2118 c41 -45 50 -53 50 -45 0 2 -21 23 -47 47 l-48 45 45 -47z"/>
 <path d="M7943 1970 c0 -36 2 -50 4 -32 2 17 2 47 0 65 -2 17 -4 3 -4 -33z"/>
 <path d="M7874 1968 l-19 -23 23 19 c21 18 27 26 19 26 -2 0 -12 -10 -23 -22z"/>
 <path d="M8102 1954 c-33 -23 -29 -69 8 -104 122 -114 651 -120 711 -9 10 20 9 21 -17 14 -115 -29 -368 -22 -497 14 -70 19 -155 64 -164 87 -7 18 -13 18 -41 -2z"/>
 <path d="M9001 1941 c-48 -48 -9 -123 77 -149 123 -37 421 -41 529 -8 53 17 114 59 102 70 -4 4 -28 2 -55 -5 -65 -15 -342 -15 -424 1 -88 16 -156 47 -184 83 l-23 30 -22 -22z"/>
 <path d="M2807 1932 c-28 -30 -21 -76 13 -106 47 -39 121 -57 265 -63 164 -7 234 6 270 49 14 17 25 32 23 33 -2 1 -39 -2 -83 -6 -93 -10 -256 3 -333 26 -30 9 -70 31 -91 51 -21 19 -41 34 -43 34 -3 0 -12 -8 -21 -18z"/>
 <path d="M7997 1845 c-79 -54 -31 -128 111 -170 126 -38 389 -44 499 -10 49 15 103 48 93 58 -3 3 -45 2 -95 -2 -251 -17 -479 32 -547 119 l-23 30 -38 -25z"/>
 <path d="M8902 1838 c-36 -23 -49 -58 -36 -97 23 -68 209 -109 444 -98 140 7 216 25 257 63 l28 25 -44 -6 c-24 -3 -114 -6 -200 -5 -230 0 -346 31 -396 107 l-22 31 -31 -20z"/>
 <path d="M2703 1824 c-56 -44 -41 -104 36 -144 63 -33 305 -51 410 -31 43 9 91 37 99 59 2 8 -33 11 -127 11 -195 0 -325 38 -361 105 -17 32 -17 32 -57 0z"/>
 <path d="M5784 1808 l-29 -33 33 29 c17 17 32 31 32 33 0 8 -8 1 -36 -29z"/>
 <path d="M9724 1798 l-19 -23 23 19 c21 18 27 26 19 26 -2 0 -12 -10 -23 -22z"/>
 <path d="M3374 1768 l-19 -23 23 19 c21 18 27 26 19 26 -2 0 -12 -10 -23 -22z"/>
 <path d="M5043 1715 c0 -22 2 -30 4 -17 2 12 2 30 0 40 -3 9 -5 -1 -4 -23z"/>
 <path d="M7877 1724 c-25 -16 -37 -32 -37 -48 0 -31 34 -72 79 -95 89 -46 352 -73 491 -52 73 11 161 46 167 66 2 6 -66 10 -190 10 -155 0 -205 4 -262 19 -90 24 -142 51 -181 92 l-30 34 -37 -26z"/>
 <path d="M8782 1718 c-59 -37 -51 -108 16 -145 63 -36 146 -47 332 -48 190 0 264 13 315 58 l26 22 -184 -3 c-245 -5 -365 17 -434 81 -13 11 -23 26 -23 33 0 22 -15 23 -48 2z"/>
 <path d="M2579 1701 c-61 -61 -21 -124 98 -157 53 -15 102 -19 218 -19 158 0 186 7 228 53 18 19 17 20 -145 24 -199 6 -263 24 -319 87 -20 23 -40 41 -44 41 -3 0 -20 -13 -36 -29z"/>
 <path d="M5669 1693 l-34 -38 38 34 c34 33 42 41 34 41 -2 0 -19 -17 -38 -37z"/>
 <path d="M7792 1675 c0 -16 2 -22 5 -12 2 9 2 23 0 30 -3 6 -5 -1 -5 -18z"/>
 <path d="M9599 1673 l-24 -28 28 24 c15 14 27 26 27 28 0 8 -8 1 -31 -24z"/>
 <path d="M3259 1653 l-24 -28 28 24 c25 23 32 31 24 31 -2 0 -14 -12 -28 -27z"/>
 <path d="M2502 1645 c0 -16 2 -22 5 -12 2 9 2 23 0 30 -3 6 -5 -1 -5 -18z"/>
 <path d="M5555 1578 l-40 -43 43 40 c39 36 47 45 39 45 -2 0 -21 -19 -42 -42z"/>
 <path d="M7830 1585 c13 -14 26 -25 28 -25 3 0 -5 11 -18 25 -13 14 -26 25 -28 25 -3 0 5 -11 18 -25z"/>
 <path d="M2728 1483 c6 -2 18 -2 25 0 6 3 1 5 -13 5 -14 0 -19 -2 -12 -5z"/>
 <path d="M8113 1483 c9 -2 23 -2 30 0 6 3 -1 5 -18 5 -16 0 -22 -2 -12 -5z"/>
 <path d="M8408 1483 c6 -2 18 -2 25 0 6 3 1 5 -13 5 -14 0 -19 -2 -12 -5z"/>
 <path d="M8943 1483 c9 -2 23 -2 30 0 6 3 -1 5 -18 5 -16 0 -22 -2 -12 -5z"/>
 <path d="M2858 1473 c17 -2 47 -2 65 0 17 2 3 4 -33 4 -36 0 -50 -2 -32 -4z"/>
 <path d="M4068 1473 c17 -2 47 -2 65 0 17 2 3 4 -33 4 -36 0 -50 -2 -32 -4z"/>
 <path d="M6858 1473 c6 -2 18 -2 25 0 6 3 1 5 -13 5 -14 0 -19 -2 -12 -5z"/>
 <path d="M7028 1473 c6 -2 18 -2 25 0 6 3 1 5 -13 5 -14 0 -19 -2 -12 -5z"/>
 <path d="M8248 1473 c18 -2 45 -2 60 0 15 2 0 4 -33 4 -33 0 -45 -2 -27 -4z"/>
 <path d="M9093 1473 c20 -2 54 -2 75 0 20 2 3 4 -38 4 -41 0 -58 -2 -37 -4z"/>
 <path d="M5288 1463 c18 -2 45 -2 60 0 15 2 0 4 -33 4 -33 0 -45 -2 -27 -4z"/>
 </g>
</svg>